<?xml version="1.0" encoding="UTF-8"?>
<!DOCTYPE svg PUBLIC "-//W3C//DTD SVG 1.1//EN" "http://www.w3.org/Graphics/SVG/1.1/DTD/svg11.dtd">
<!-- Creator: CorelDRAW X7 -->
<svg xmlns="http://www.w3.org/2000/svg" xml:space="preserve" width="175px" height="50px" version="1.1" style="shape-rendering:geometricPrecision; text-rendering:geometricPrecision; image-rendering:optimizeQuality; fill-rule:evenodd; clip-rule:evenodd"
viewBox="0 0 66553 19015"
 xmlns:xlink="http://www.w3.org/1999/xlink">
 <defs>
  <style type="text/css">
   <![CDATA[
    .fil0 {fill:#FF6900}
    .fil1 {fill:white}
    .fil2 {fill:#FEFEFE;fill-rule:nonzero}
   ]]>
  </style>
 </defs>
 <g id="Слой_x0020_1">
  <metadata id="CorelCorpID_0Corel-Layer"/>
  <g id="_621561984">
   <path class="fil0" d="M17033 1986c-1794,-1787 -4373,-1986 -7526,-1986 -3156,0 -5739,202 -7532,1994 -1793,1791 -1975,4370 -1975,7523 0,3153 182,5733 1976,7525 1793,1792 4376,1973 7531,1973 3157,0 5739,-181 7533,-1973 1793,-1793 1976,-4372 1976,-7525 0,-3157 -185,-5739 -1983,-7531l0 0z"/>
   <path class="fil1" d="M8688 8674l-1621 0c-66,0 -121,53 -121,117l0 4241c0,63 55,116 121,116l1621 0c66,0 119,-53 119,-116l0 -4241c0,-64 -53,-117 -119,-117z"/>
   <path class="fil1" d="M13498 13148l1545 0c66,0 120,-53 120,-116l0 -7047c0,-65 -54,-117 -120,-117l-1545 0c-65,0 -119,52 -119,117l0 7047c0,63 53,116 119,116z"/>
   <path class="fil1" d="M3887 13148l1544 0c66,0 121,-53 121,-116l0 -383 0 -5148c0,-64 54,-117 120,-117l2798 0c549,14 1078,78 1362,364 329,330 366,986 367,1625l0 3643 0 16c0,63 54,116 121,116l1543 0c66,0 120,-53 120,-116l0 -3525c0,-1166 -54,-2381 -657,-2985 -601,-601 -1819,-654 -2983,-654l-4456 0c-67,0 -120,52 -120,117l0 7047c0,63 53,116 120,116z"/>
   <g>
    <polygon class="fil2" points="23207,11920 24349,11920 25594,10015 26847,11920 27981,11920 26179,9325 27914,6820 26803,6820 25594,8636 24393,6820 23281,6820 25015,9325 "/>
    <path id="_1" class="fil2" d="M28596 11920l949 0 0 -3707 -949 0 0 3707zm-66 -4729c0,310 222,533 541,533 311,0 541,-222 541,-533 0,-319 -230,-542 -541,-542 -319,0 -541,223 -541,542z"/>
    <path id="_2" class="fil2" d="M32577 11920l905 0 0 -2432c0,-800 -586,-1363 -1490,-1363 -438,0 -890,96 -1342,303l0 786c422,-237 845,-355 1231,-355 414,0 696,237 696,585l0 171c-163,-8 -311,-16 -460,-16 -1060,0 -1786,535 -1786,1305 0,653 489,1105 1178,1105 378,0 742,-134 1068,-385l0 296 0 0zm-1312 -1149c0,-356 363,-608 897,-608 148,0 282,8 415,22l0 727c-230,230 -497,363 -756,363 -326,0 -556,-207 -556,-504l0 0 0 0z"/>
    <path id="_3" class="fil2" d="M34238 10067c0,1134 792,1942 1913,1942 1119,0 1905,-808 1905,-1942 0,-1141 -786,-1942 -1905,-1942 -1121,0 -1913,801 -1913,1942zm971 0c0,-682 385,-1150 942,-1150 548,0 934,468 934,1150 0,682 -386,1149 -934,1149 -557,0 -942,-467 -942,-1149z"/>
    <path id="_4" class="fil2" d="M38841 11920l949 0 0 -2587c238,-252 505,-378 749,-378 341,0 586,259 586,615l0 2350 949 0 0 -2587c237,-252 504,-378 749,-378 341,0 579,259 579,615l0 2350 948 0 0 -2499c0,-763 -497,-1296 -1230,-1296 -438,0 -860,185 -1231,556 -230,-364 -601,-556 -1045,-556 -371,0 -727,118 -1053,385l0 -297 -949 0 0 3707 -1 0z"/>
    <path id="_5" class="fil2" d="M45358 11920l949 0 0 -3707 -949 0 0 3707zm-67 -4729c0,310 223,533 542,533 311,0 541,-222 541,-533 0,-319 -230,-542 -541,-542 -319,0 -542,223 -542,542z"/>
    <path id="_6" class="fil2" d="M49139 11668c489,230 1001,341 1490,341 1082,0 1854,-622 1854,-1520 0,-1793 -2477,-1282 -2477,-2298 0,-408 379,-682 919,-682 423,0 876,126 1306,386l0 -883c-453,-185 -920,-282 -1372,-282 -1075,0 -1824,601 -1824,1476 0,1765 2476,1253 2476,2298 0,430 -385,727 -948,727 -467,0 -949,-156 -1424,-460l0 897 0 0z"/>
    <path id="_7" class="fil2" d="M54410 7168l-949 0 0 1045 -637 0 0 764 637 0 0 1839c0,696 512,1193 1238,1193 252,0 512,-51 778,-156l0 -785c-192,96 -370,148 -526,148 -326,0 -541,-222 -541,-527l0 -1712 1067 0 0 -764 -1067 0 0 -1045z"/>
    <path id="_8" class="fil2" d="M55974 10067c0,1134 793,1942 1913,1942 1120,0 1905,-808 1905,-1942 0,-1141 -785,-1942 -1905,-1942 -1120,0 -1913,801 -1913,1942zm971 0c0,-682 386,-1150 942,-1150 549,0 934,468 934,1150 0,682 -385,1149 -934,1149 -556,0 -942,-467 -942,-1149z"/>
    <path id="_9" class="fil2" d="M60578 11920l949 0 0 -2476c244,-311 578,-482 889,-482 111,0 230,15 334,44l0 -845c-104,-29 -208,-36 -311,-36 -319,0 -645,163 -912,459l0 -371 -949 0 0 3707z"/>
    <path id="_10" class="fil2" d="M63091 10037c0,1156 786,1972 1905,1972 415,0 838,-96 1261,-289l0 -794c-385,223 -764,349 -1105,349 -622,0 -1067,-386 -1126,-949l2512 0c15,-126 15,-245 15,-348 0,-1090 -659,-1853 -1631,-1853 -1060,0 -1830,793 -1830,1912l-1 0zm935 -326c44,-511 399,-852 859,-852 423,0 727,348 757,852l-1616 0z"/>
   </g>
  </g>
 </g>
</svg>
