<svg width="15" height="15" viewBox="0 0 10 10" fill="none" xmlns="http://www.w3.org/2000/svg">
<path d="M0.833252 4.99984C0.833252 3.42859 0.833252 2.64275 1.32159 2.15484C1.80992 1.66692 2.59534 1.6665 4.16659 1.6665H5.83325C7.4045 1.6665 8.19033 1.6665 8.67825 2.15484C9.16617 2.64317 9.16659 3.42859 9.16659 4.99984V5.83317C9.16659 7.40442 9.16658 8.19025 8.67825 8.67817C8.18992 9.16609 7.4045 9.1665 5.83325 9.1665H4.16659C2.59534 9.1665 1.8095 9.1665 1.32159 8.67817C0.833669 8.18984 0.833252 7.40442 0.833252 5.83317V4.99984Z" stroke="#FF6700"/>
<path d="M2.9165 1.6665V1.0415M7.08317 1.6665V1.0415M1.0415 3.74984H8.95817" stroke="#FF6700" stroke-linecap="round"/>
<path d="M7.5 7.08333C7.5 7.19384 7.4561 7.29982 7.37796 7.37796C7.29982 7.4561 7.19384 7.5 7.08333 7.5C6.97283 7.5 6.86685 7.4561 6.78871 7.37796C6.71056 7.29982 6.66667 7.19384 6.66667 7.08333C6.66667 6.97283 6.71056 6.86685 6.78871 6.78871C6.86685 6.71056 6.97283 6.66667 7.08333 6.66667C7.19384 6.66667 7.29982 6.71056 7.37796 6.78871C7.4561 6.86685 7.5 6.97283 7.5 7.08333ZM7.5 5.41667C7.5 5.52717 7.4561 5.63315 7.37796 5.71129C7.29982 5.78943 7.19384 5.83333 7.08333 5.83333C6.97283 5.83333 6.86685 5.78943 6.78871 5.71129C6.71056 5.63315 6.66667 5.52717 6.66667 5.41667C6.66667 5.30616 6.71056 5.20018 6.78871 5.12204C6.86685 5.0439 6.97283 5 7.08333 5C7.19384 5 7.29982 5.0439 7.37796 5.12204C7.4561 5.20018 7.5 5.30616 7.5 5.41667ZM5.41667 7.08333C5.41667 7.19384 5.37277 7.29982 5.29463 7.37796C5.21649 7.4561 5.11051 7.5 5 7.5C4.88949 7.5 4.78351 7.4561 4.70537 7.37796C4.62723 7.29982 4.58333 7.19384 4.58333 7.08333C4.58333 6.97283 4.62723 6.86685 4.70537 6.78871C4.78351 6.71056 4.88949 6.66667 5 6.66667C5.11051 6.66667 5.21649 6.71056 5.29463 6.78871C5.37277 6.86685 5.41667 6.97283 5.41667 7.08333ZM5.41667 5.41667C5.41667 5.52717 5.37277 5.63315 5.29463 5.71129C5.21649 5.78943 5.11051 5.83333 5 5.83333C4.88949 5.83333 4.78351 5.78943 4.70537 5.71129C4.62723 5.63315 4.58333 5.52717 4.58333 5.41667C4.58333 5.30616 4.62723 5.20018 4.70537 5.12204C4.78351 5.0439 4.88949 5 5 5C5.11051 5 5.21649 5.0439 5.29463 5.12204C5.37277 5.20018 5.41667 5.30616 5.41667 5.41667ZM3.33333 7.08333C3.33333 7.19384 3.28943 7.29982 3.21129 7.37796C3.13315 7.4561 3.02717 7.5 2.91667 7.5C2.80616 7.5 2.70018 7.4561 2.62204 7.37796C2.5439 7.29982 2.5 7.19384 2.5 7.08333C2.5 6.97283 2.5439 6.86685 2.62204 6.78871C2.70018 6.71056 2.80616 6.66667 2.91667 6.66667C3.02717 6.66667 3.13315 6.71056 3.21129 6.78871C3.28943 6.86685 3.33333 6.97283 3.33333 7.08333ZM3.33333 5.41667C3.33333 5.52717 3.28943 5.63315 3.21129 5.71129C3.13315 5.78943 3.02717 5.83333 2.91667 5.83333C2.80616 5.83333 2.70018 5.78943 2.62204 5.71129C2.5439 5.63315 2.5 5.52717 2.5 5.41667C2.5 5.30616 2.5439 5.20018 2.62204 5.12204C2.70018 5.0439 2.80616 5 2.91667 5C3.02717 5 3.13315 5.0439 3.21129 5.12204C3.28943 5.20018 3.33333 5.30616 3.33333 5.41667Z" fill="#FF6700"/>
</svg>
