<svg width="70" height="70" viewBox="0 0 70 70" fill="none" xmlns="http://www.w3.org/2000/svg">
<path d="M44.7777 6.71397C44.555 6.92491 44.4847 7.12413 44.4847 7.53428V8.06163H43.5003C42.6566 8.06163 42.4339 8.1085 41.8948 8.38975C41.4964 8.58897 41.1331 8.90538 40.9105 9.22178L40.5589 9.72569L40.5238 19.5811C40.4886 30.4796 40.4652 29.9991 41.2269 30.7843C42.0355 31.6163 41.18 31.5577 52.6878 31.5577H63.0589L63.5511 31.2999C64.1487 30.9835 64.6761 30.339 64.8636 29.753C65.0394 29.1436 65.0511 10.546 64.8636 9.90147C64.7112 9.32725 64.0081 8.55381 63.4105 8.28428C63.0823 8.13194 62.6605 8.06163 61.9808 8.06163H61.0081V7.65147C61.0081 6.6085 60.2698 6.1046 59.555 6.6671C59.2972 6.86631 59.2503 6.99522 59.2503 7.48741V8.06163H52.7464H46.2425V7.53428C46.2425 6.90147 45.8558 6.421 45.3636 6.421C45.1995 6.421 44.93 6.54991 44.7777 6.71397ZM44.4847 10.4522C44.4847 11.2608 44.7894 11.6944 45.3636 11.6944C45.9378 11.6944 46.2425 11.2608 46.2425 10.4522V9.81944H52.7464H59.2503V10.5226C59.2503 11.3312 59.4964 11.6944 60.0589 11.6944C60.6566 11.6944 60.9261 11.3546 60.9847 10.5343L61.0316 9.81944H61.8519C62.555 9.81944 62.6956 9.85459 62.9417 10.1124C63.2347 10.3937 63.2347 10.4171 63.2347 12.5147V14.6241H56.6487C50.6956 14.6241 50.0511 14.6476 49.8519 14.8233C49.5472 15.0929 49.5706 15.8077 49.887 16.1007C50.1214 16.3116 50.4378 16.3233 56.6839 16.3585L63.2347 16.3937V22.839V29.2843L62.9417 29.5655L62.6605 29.8585H52.7698C42.9378 29.8585 42.8792 29.8585 42.5628 29.6124L42.2581 29.378V22.8858V16.4054L44.473 16.3585C46.4534 16.3233 46.7113 16.2999 46.9339 16.1007C47.2386 15.8312 47.262 15.1515 46.9808 14.8351C46.8167 14.6476 46.5706 14.6241 44.5198 14.6241H42.2581V12.4562C42.2581 10.3819 42.2698 10.2882 42.5159 10.0538C42.7269 9.86631 42.9261 9.81944 43.6292 9.81944H44.4847V10.4522Z" fill="white"/>
<path d="M45.1999 18.5609C44.5553 19.3812 45.3991 20.2015 46.653 19.9672C47.3678 19.8265 47.6725 18.9828 47.1803 18.4906C46.9928 18.3031 46.7936 18.2562 46.1959 18.2562C45.5163 18.2562 45.4108 18.2914 45.1999 18.5609Z" fill="white"/>
<path d="M49.5357 18.5605C49.2545 18.9237 49.231 19.0644 49.4185 19.4745C49.6763 20.037 51.0006 20.1894 51.5279 19.7089C51.8209 19.4394 51.8209 18.7948 51.5162 18.4901C51.3287 18.3026 51.1295 18.2558 50.5318 18.2558C49.8521 18.2558 49.7467 18.2909 49.5357 18.5605Z" fill="white"/>
<path d="M53.8714 18.5625C53.555 18.9727 53.5667 19.2305 53.9066 19.6289C54.1644 19.9219 54.2698 19.957 54.8909 19.957C55.7698 19.957 56.0862 19.7227 56.0862 19.0781C56.0862 18.4453 55.8167 18.2578 54.8792 18.2578C54.1878 18.2578 54.0823 18.293 53.8714 18.5625Z" fill="white"/>
<path d="M58.2073 18.5625C57.8909 18.9727 57.9027 19.2305 58.2425 19.6289C58.5003 19.9219 58.6058 19.957 59.2386 19.957C60.0706 19.957 60.4573 19.6758 60.4573 19.0898C60.4573 18.4688 60.1527 18.2578 59.2386 18.2578C58.5238 18.2578 58.4183 18.293 58.2073 18.5625Z" fill="white"/>
<path d="M45.1999 22.0747C44.8952 22.4614 44.8835 22.8364 45.1765 23.188C45.3405 23.3989 45.5397 23.4575 46.0788 23.5044C46.9577 23.563 47.4147 23.27 47.4147 22.6372C47.4147 22.0044 47.0866 21.77 46.196 21.77C45.5163 21.77 45.4108 21.8052 45.1999 22.0747Z" fill="white"/>
<path d="M49.5355 22.0754C49.2659 22.4153 49.2542 22.4973 49.3597 22.9192C49.5237 23.5168 50.848 23.7512 51.4456 23.2825C51.8323 22.9778 51.8675 22.3567 51.5159 22.0051C51.3284 21.8176 51.1292 21.7707 50.5315 21.7707C49.8519 21.7707 49.7464 21.8059 49.5355 22.0754Z" fill="white"/>
<path d="M53.8717 22.0742C53.5904 22.4258 53.567 22.5781 53.7545 22.9766C53.9185 23.3516 54.3287 23.5273 54.9615 23.5273C55.6529 23.5273 56.0865 23.1875 56.0865 22.6367C56.0865 22.0039 55.7584 21.7695 54.8677 21.7695C54.1881 21.7695 54.0826 21.8047 53.8717 22.0742Z" fill="white"/>
<path d="M58.3948 21.9007C57.8558 22.2171 57.9143 23.1312 58.5003 23.4007C59.0042 23.6233 59.7893 23.5648 60.1409 23.2601C60.5393 22.9085 60.5628 22.2874 60.1761 21.9827C59.8948 21.7483 58.7464 21.6898 58.3948 21.9007Z" fill="white"/>
<path d="M45.2466 25.5807C45.0825 25.7331 44.9536 26.0026 44.9536 26.1667C44.9536 26.3307 45.0825 26.6002 45.2466 26.7526C45.6333 27.1393 46.6411 27.1745 47.1099 26.7995C47.5083 26.4831 47.5317 25.8971 47.145 25.5456C46.7349 25.1588 45.6333 25.1823 45.2466 25.5807Z" fill="white"/>
<path d="M49.5825 25.5807C49.4185 25.7331 49.2896 26.0026 49.2896 26.1667C49.2896 26.3307 49.4185 26.6002 49.5825 26.7526C49.9692 27.1393 50.977 27.1745 51.4458 26.7995C51.8442 26.4831 51.8677 25.8737 51.4927 25.5221C51.0942 25.1588 49.9692 25.1823 49.5825 25.5807Z" fill="white"/>
<path d="M53.895 25.5898C53.6606 25.8242 53.6137 25.9531 53.6723 26.2578C53.7778 26.8086 54.1293 27.043 54.8559 27.043C55.6528 27.043 56.0864 26.7383 56.0864 26.1523C56.0864 25.5313 55.7582 25.2852 54.9145 25.2852C54.3051 25.2852 54.1528 25.332 53.895 25.5898Z" fill="white"/>
<path d="M58.3484 25.4609C58.0086 25.6953 57.9148 26.1523 58.1258 26.5625C58.3367 26.9609 58.5125 27.043 59.1922 27.043C59.8718 27.043 60.2703 26.8555 60.3992 26.457C60.5281 26.082 60.3172 25.4727 60.0125 25.3555C59.6492 25.2266 58.6062 25.2852 58.3484 25.4609Z" fill="white"/>
<path d="M17.2153 17.9744C14.6841 18.3728 11.2153 19.9549 11.063 20.7635C10.981 21.1619 11.1919 21.5486 11.5903 21.7713C11.895 21.9353 11.9419 21.9236 12.4692 21.6189C14.2271 20.5877 16.0669 19.908 17.813 19.6736C19.1841 19.4861 23.9419 19.5096 25.2075 19.7205C29.2505 20.3768 32.7427 22.908 34.5474 26.5057C35.6489 28.6971 35.8247 29.5525 35.895 32.9041L35.9536 35.658L35.3091 35.9275C34.9575 36.0799 34.2544 36.4549 33.7505 36.7596L32.8247 37.3338L32.7544 33.9822C32.6841 30.4666 32.6489 30.1619 32.063 28.6853C30.9849 25.9666 28.3013 23.658 25.4067 22.9783C24.0942 22.6736 18.4224 22.6736 17.3091 22.9783C15.481 23.4822 14.2505 24.1502 12.9849 25.3455C11.6138 26.6346 10.688 28.1932 10.1958 30.033C9.98488 30.8064 9.97316 31.4744 9.97316 41.4002C9.97316 51.115 9.98488 52.0056 10.1841 52.697C10.6763 54.4783 11.3325 55.7088 12.481 56.9509C13.7349 58.3103 15.0591 59.1306 16.9107 59.7048C17.9302 60.0213 17.9888 60.0213 21.2817 60.033C24.188 60.033 24.7271 60.0095 25.4419 59.8103C26.4145 59.5525 27.5513 59.0486 28.3481 58.5447C28.6528 58.3455 28.9224 58.2048 28.9341 58.2283C29.227 58.6619 29.7661 59.365 30.27 59.9392L30.8911 60.6658L30.5161 60.947C29.438 61.7673 27.1997 62.7048 25.5591 63.033C24.2817 63.2908 18.1177 63.2673 16.9458 62.9978C11.6841 61.8259 7.80519 57.7713 6.92628 52.533C6.76222 51.49 6.73878 50.2009 6.77394 40.8142L6.8091 30.2674L7.1255 29.1307C7.52394 27.6775 8.20363 26.2361 9.04738 25.0174C9.73878 24.033 9.86769 23.5994 9.563 23.2244C9.31691 22.9432 8.89503 22.8143 8.57863 22.9432C7.85206 23.2127 6.0591 26.4471 5.53175 28.4158C4.99269 30.4314 4.96925 31.0056 5.01613 42.1619L5.05129 52.6502L5.42629 54.033C6.12941 56.6345 7.41847 58.8728 9.27003 60.7361C11.6255 63.0916 14.5669 64.5212 17.895 64.908C19.5942 65.0955 24.938 64.9783 26.0864 64.7205C28.102 64.2752 29.813 63.5486 31.3599 62.4939L32.2856 61.8611L33.0825 62.4002C34.7231 63.5017 36.6684 64.2986 38.7427 64.7439C40.1255 65.0369 43.102 65.0252 44.4731 64.7322C46.688 64.2517 48.6919 63.3962 50.3442 62.2127C54.4458 59.2713 56.7895 54.7595 56.7895 49.7791C56.7895 45.7595 55.313 42.1267 52.5122 39.2439C50.2505 36.9119 47.7778 35.5525 44.4848 34.826C43.2544 34.5447 39.9497 34.5447 38.7427 34.8142C38.2622 34.9197 37.8286 35.0135 37.7934 35.0135C37.7466 35.0135 37.688 33.8885 37.6528 32.5174C37.6059 30.5017 37.5474 29.8455 37.3481 29.0369C35.9302 23.3885 31.852 19.4158 26.1216 18.0682C24.9614 17.7986 18.7271 17.7283 17.2153 17.9744ZM25.4419 24.8064C26.7427 25.2283 27.6919 25.826 28.7349 26.8572C29.4966 27.6189 29.7895 28.0057 30.1763 28.8142C30.938 30.3963 31.0083 30.9002 31.0083 35.1072V38.7752L30.2349 39.6541C28.77 41.3416 27.727 43.1814 27.0825 45.2088C26.6255 46.6619 26.5786 47.2244 26.895 47.5408C27.2583 47.9041 27.8794 47.8689 28.1841 47.4822C28.3247 47.3064 28.4302 47.072 28.4302 46.9666C28.4302 46.5799 29.1099 44.658 29.5786 43.7322C31.0552 40.8142 33.5513 38.5174 36.5864 37.2986C44.2505 34.2049 52.8755 38.7635 54.7622 46.908C55.0669 48.2322 55.0669 51.3259 54.7622 52.6502C53.2739 59.0486 47.4614 63.5252 41.0278 63.2205C34.5708 62.9041 29.4145 58.322 28.313 51.9119C28.1841 51.1619 28.02 50.6111 27.8911 50.4705C27.6099 50.1658 26.977 50.1775 26.6606 50.4939C26.438 50.7166 26.4145 50.8338 26.4849 51.5369C26.5786 52.5916 27.0356 54.3611 27.5395 55.6033C27.9145 56.5291 27.938 56.6463 27.7739 56.8338C27.5161 57.115 26.0278 57.8181 25.2075 58.0525C24.27 58.3103 19.8286 58.4275 18.4458 58.2166C15.4341 57.783 13.1021 55.8259 12.0591 52.8845L11.731 51.947V41.4588V30.9705L12.0708 29.9275C12.8208 27.6424 14.5435 25.826 16.7466 24.9939C17.9771 24.5369 18.5396 24.4783 21.6919 24.5135C24.3638 24.5369 24.6919 24.5721 25.4419 24.8064Z" fill="white"/>
<path d="M35.4147 41.9727C33.3287 42.7461 32.7545 45.4531 34.36 46.9883C34.9576 47.5508 35.5904 47.8086 36.4108 47.8086C38.0514 47.8086 39.2818 46.6719 39.4107 45.043C39.4693 44.4219 39.4342 44.1992 39.1881 43.6719C38.86 42.957 38.3209 42.3828 37.6998 42.0898C37.149 41.8203 36.0006 41.7617 35.4147 41.9727ZM37.2897 43.9648C37.7584 44.4336 37.817 44.9375 37.4537 45.5234C36.9264 46.4023 35.5318 46.1563 35.2506 45.1484C35.0983 44.6094 35.2975 44.0586 35.7311 43.8008C36.317 43.4375 36.8209 43.4961 37.2897 43.9648Z" fill="white"/>
<path d="M46.5003 42.0097C46.1488 42.3261 35.3441 56.33 35.2269 56.623C34.9808 57.2675 35.6957 57.9355 36.3519 57.6776C36.516 57.6191 38.9066 54.6308 42.2582 50.3066C48.305 42.4902 48.2113 42.6308 47.6136 42.0683C47.2855 41.7519 46.8167 41.7402 46.5003 42.0097Z" fill="white"/>
<path d="M46.2194 51.7848C44.3092 52.0661 43.1959 54.3043 44.0866 56.0856C44.9772 57.8786 47.3795 58.3122 48.8092 56.9293C49.4537 56.3082 49.6647 55.8395 49.735 54.9372C49.8756 52.945 48.2467 51.4918 46.2194 51.7848ZM47.6608 53.8707C48.1647 54.3747 48.1412 55.0543 47.6022 55.5934C47.1452 56.0504 46.6061 56.1207 46.1256 55.7926C45.6569 55.4762 45.5514 55.2653 45.5397 54.7262C45.5397 54.3161 45.61 54.152 45.8795 53.8707C46.1608 53.5895 46.3248 53.5309 46.7702 53.5309C47.2155 53.5309 47.3795 53.5895 47.6608 53.8707Z" fill="white"/>
</svg>
