<svg version="1.0" xmlns="http://www.w3.org/2000/svg" width="70" height="70" viewBox="0 0 512.000000 512.000000" preserveAspectRatio="xMidYMid meet">
                                <g transform="translate(0.000000,512.000000) scale(0.100000,-0.100000)" fill="#fff" stroke="none">
                                    <path
                                        d="M3395 5035 c-19 -18 -25 -35 -25 -70 l0 -45 -84 0 c-72 0 -91 -4
-137 -28 -34 -17 -65 -44 -84 -71 l-30 -43 -3 -841 c-3 -930 -5 -889 60 -956
69 -71 -4 -66 978 -66 l885 0 42 22 c51 27 96 82 112 132 15 52 16 1639 0
1694 -13 49 -73 115 -124 138 -28 13 -64 19 -122 19 l-83 0 0 35 c0 89 -63
132 -124 84 -22 -17 -26 -28 -26 -70 l0 -49 -555 0 -555 0 0 45 c0 54 -33 95
-75 95 -14 0 -37 -11 -50 -25z m-25 -319 c0 -69 26 -106 75 -106 49 0 75 37
75 106 l0 54 555 0 555 0 0 -60 c0 -69 21 -100 69 -100 51 0 74 29 79 99 l4
61 70 0 c60 0 72 -3 93 -25 25 -24 25 -26 25 -205 l0 -180 -562 0 c-508 0
-563 -2 -580 -17 -26 -23 -24 -84 3 -109 20 -18 47 -19 580 -22 l559 -3 0
-550 0 -550 -25 -24 -24 -25 -844 0 c-839 0 -844 0 -871 21 l-26 20 0 554 0
553 189 4 c169 3 191 5 210 22 26 23 28 81 4 108 -14 16 -35 18 -210 18 l-193
0 0 185 c0 177 1 185 22 205 18 16 35 20 95 20 l73 0 0 -54z"
                                    />
                                    <path
                                        d="M3431 4024 c-55 -70 17 -140 124 -120 61 12 87 84 45 126 -16 16 -33
20 -84 20 -58 0 -67 -3 -85 -26z"
                                    />
                                    <path
                                        d="M3801 4024 c-24 -31 -26 -43 -10 -78 22 -48 135 -61 180 -20 25 23
25 78 -1 104 -16 16 -33 20 -84 20 -58 0 -67 -3 -85 -26z"
                                    />
                                    <path
                                        d="M4171 4024 c-27 -35 -26 -57 3 -91 22 -25 31 -28 84 -28 75 0 102 20
102 75 0 54 -23 70 -103 70 -59 0 -68 -3 -86 -26z"
                                    />
                                    <path
                                        d="M4541 4024 c-27 -35 -26 -57 3 -91 22 -25 31 -28 85 -28 71 0 104 24
104 74 0 53 -26 71 -104 71 -61 0 -70 -3 -88 -26z"
                                    />
                                    <path
                                        d="M3431 3724 c-26 -33 -27 -65 -2 -95 14 -18 31 -23 77 -27 75 -5 114
20 114 74 0 54 -28 74 -104 74 -58 0 -67 -3 -85 -26z"
                                    />
                                    <path
                                        d="M3801 3724 c-23 -29 -24 -36 -15 -72 14 -51 127 -71 178 -31 33 26
36 79 6 109 -16 16 -33 20 -84 20 -58 0 -67 -3 -85 -26z"
                                    />
                                    <path
                                        d="M4171 3724 c-24 -30 -26 -43 -10 -77 14 -32 49 -47 103 -47 59 0 96
29 96 76 0 54 -28 74 -104 74 -58 0 -67 -3 -85 -26z"
                                    />
                                    <path
                                        d="M4557 3739 c-46 -27 -41 -105 9 -128 43 -19 110 -14 140 12 34 30 36
83 3 109 -24 20 -122 25 -152 7z"
                                    />
                                    <path
                                        d="M3435 3425 c-14 -13 -25 -36 -25 -50 0 -14 11 -37 25 -50 33 -33 119
-36 159 -4 34 27 36 77 3 107 -35 33 -129 31 -162 -3z"
                                    />
                                    <path
                                        d="M3805 3425 c-14 -13 -25 -36 -25 -50 0 -14 11 -37 25 -50 33 -33 119
-36 159 -4 34 27 36 79 4 109 -34 31 -130 29 -163 -5z"
                                    />
                                    <path
                                        d="M4173 3424 c-20 -20 -24 -31 -19 -57 9 -47 39 -67 101 -67 68 0 105
26 105 76 0 53 -28 74 -100 74 -52 0 -65 -4 -87 -26z"
                                    />
                                    <path
                                        d="M4553 3435 c-29 -20 -37 -59 -19 -94 18 -34 33 -41 91 -41 58 0 92
16 103 50 11 32 -7 84 -33 94 -31 11 -120 6 -142 -9z"
                                    />
                                    <path
                                        d="M1043 4074 c-216 -34 -512 -169 -525 -238 -7 -34 11 -67 45 -86 26
-14 30 -13 75 13 150 88 307 146 456 166 117 16 523 14 631 -4 345 -56 643
-272 797 -579 94 -187 109 -260 115 -546 l5 -235 -55 -23 c-30 -13 -90 -45
-133 -71 l-79 -49 -6 286 c-6 300 -9 326 -59 452 -92 232 -321 429 -568 487
-112 26 -596 26 -691 0 -156 -43 -261 -100 -369 -202 -117 -110 -196 -243
-238 -400 -18 -66 -19 -123 -19 -970 0 -829 1 -905 18 -964 42 -152 98 -257
196 -363 107 -116 220 -186 378 -235 87 -27 92 -27 373 -28 248 0 294 2 355
19 83 22 180 65 248 108 26 17 49 29 50 27 25 -37 71 -97 114 -146 l53 -62
-32 -24 c-92 -70 -283 -150 -423 -178 -109 -22 -635 -20 -735 3 -449 100 -780
446 -855 893 -14 89 -16 199 -13 1000 l3 900 27 97 c34 124 92 247 164 351 59
84 70 121 44 153 -21 24 -57 35 -84 24 -62 -23 -215 -299 -260 -467 -46 -172
-48 -221 -44 -1173 l3 -895 32 -118 c60 -222 170 -413 328 -572 201 -201 452
-323 736 -356 145 -16 601 -6 699 16 172 38 318 100 450 190 l79 54 68 -46
c140 -94 306 -162 483 -200 118 -25 372 -24 489 1 189 41 360 114 501 215 350
251 550 636 550 1061 0 343 -126 653 -365 899 -193 199 -404 315 -685 377
-105 24 -387 24 -490 1 -41 -9 -78 -17 -81 -17 -4 0 -9 96 -12 213 -4 172 -9
228 -26 297 -121 482 -469 821 -958 936 -99 23 -631 29 -760 8z m702 -583
c111 -36 192 -87 281 -175 65 -65 90 -98 123 -167 65 -135 71 -178 71 -537 l0
-313 -66 -75 c-125 -144 -214 -301 -269 -474 -39 -124 -43 -172 -16 -199 31
-31 84 -28 110 5 12 15 21 35 21 44 0 33 58 197 98 276 126 249 339 445 598
549 654 264 1390 -125 1551 -820 26 -113 26 -377 0 -490 -127 -546 -623 -928
-1172 -902 -551 27 -991 418 -1085 965 -11 64 -25 111 -36 123 -24 26 -78 25
-105 -2 -19 -19 -21 -29 -15 -89 8 -90 47 -241 90 -347 32 -79 34 -89 20 -105
-22 -24 -149 -84 -219 -104 -80 -22 -459 -32 -577 -14 -257 37 -456 204 -545
455 l-28 80 0 895 0 895 29 89 c64 195 211 350 399 421 105 39 153 44 422 41
228 -2 256 -5 320 -25z"
                                    />
                                    <path
                                        d="M2596 2026 c-178 -66 -227 -297 -90 -428 51 -48 105 -70 175 -70 140
0 245 97 256 236 5 53 2 72 -19 117 -28 61 -74 110 -127 135 -47 23 -145 28
-195 10z m160 -170 c40 -40 45 -83 14 -133 -45 -75 -164 -54 -188 32 -13 46 4
93 41 115 50 31 93 26 133 -14z"
                                    />
                                    <path
                                        d="M3542 2023 c-30 -27 -952 -1222 -962 -1247 -21 -55 40 -112 96 -90
14 5 218 260 504 629 516 667 508 655 457 703 -28 27 -68 28 -95 5z"
                                    />
                                    <path
                                        d="M3518 1189 c-163 -24 -258 -215 -182 -367 76 -153 281 -190 403 -72
55 53 73 93 79 170 12 170 -127 294 -300 269z m123 -178 c43 -43 41 -101 -5
-147 -39 -39 -85 -45 -126 -17 -40 27 -49 45 -50 91 0 35 6 49 29 73 24 24 38
29 76 29 38 0 52 -5 76 -29z"
                                    />
                                </g>
                            </svg>