<svg width="70" height="70" viewBox="0 0 70 70" fill="none" xmlns="http://www.w3.org/2000/svg">
<path d="M33.2218 42.2868L49.2856 26.2094L47.5074 24.4297L33.2218 38.7275L26.0638 31.5635L24.2856 33.3432L33.2218 42.2868Z" fill="white"/>
<path d="M35 66.8679C27.8238 64.7393 21.8631 60.3939 17.1179 53.8321C12.3726 47.2704 10 39.8775 10 31.6536V12.3393L35 3L60 12.3393V31.6536C60 39.8775 57.6275 47.2704 52.8821 53.8321C48.1368 60.3939 42.1762 64.7429 35 66.8786M35 63.0857C41.1905 61.1214 46.3096 57.1929 50.3571 51.3C54.4046 45.4071 56.4286 38.8596 56.4286 31.6571V14.7786L35 6.81429L13.5714 14.7786V31.6536C13.5714 38.8561 15.4524 45.6071 19.5 51.5C23.5476 57.3929 28.8095 61.1214 35 63.0857Z" fill="white"/>
</svg>
