<svg width="50" height="65" viewBox="0 0 14 18" fill="none" xmlns="http://www.w3.org/2000/svg">
<g clip-path="url(#clip0_37_5)">
<path d="M6.50211 11L11 6.49831L10.5021 6L6.50211 10.0034L4.49789 7.99747L4 8.49578L6.50211 11Z" fill="#fff"/>
<path d="M7 17.883C4.99067 17.287 3.32167 16.0703 1.993 14.233C0.664333 12.3957 0 10.3257 0 8.023V2.615L7 0L14 2.615V8.023C14 10.3257 13.3357 12.3957 12.007 14.233C10.6783 16.0703 9.00933 17.288 7 17.886M7 16.824C8.73333 16.274 10.1667 15.174 11.3 13.524C12.4333 11.874 13 10.0407 13 8.024V3.298L7 1.068L1 3.298V8.023C1 10.0397 1.56667 11.873 2.7 13.523C3.83333 15.173 5.26667 16.274 7 16.824Z" fill="#fff"/>
</g>
<defs>
<clipPath id="clip0_37_5">
<rect width="50" height="65" fill="white"/>
</clipPath>
</defs>
</svg>
