<svg width="23" height="25" viewBox="0 0 23 25" fill="none" xmlns="http://www.w3.org/2000/svg">
<path d="M9.76625 3.38751C9.51562 3.38751 9.27526 3.48707 9.09803 3.66429C8.92081 3.84151 8.82125 4.08188 8.82125 4.33251V16.8713L3.51625 15.375H3.01625V15.875L7.35375 21.38C7.44238 21.4946 7.55603 21.5874 7.68602 21.6513C7.81601 21.7152 7.9589 21.7485 8.10375 21.7488H16.9613C17.1596 21.7482 17.3528 21.6856 17.5137 21.5697C17.6747 21.4538 17.7953 21.2904 17.8588 21.1025L20.0863 14.415C20.1546 14.2088 20.1501 13.9854 20.0737 13.782C19.9973 13.5787 19.8535 13.4077 19.6663 13.2975L15.135 10.6538C14.9904 10.5696 14.8261 10.5252 14.6587 10.525H10.71V4.33251C10.71 4.08209 10.6106 3.84192 10.4337 3.66473C10.2567 3.48755 10.0167 3.38784 9.76625 3.38751ZM6.32125 4.33251C6.33844 3.43036 6.70888 2.57097 7.35295 1.93905C7.99703 1.30713 8.86332 0.953125 9.76562 0.953125C10.6679 0.953125 11.5342 1.30713 12.1783 1.93905C12.8224 2.57097 13.1928 3.43036 13.21 4.33251V8.02501H14.6587C15.2687 8.02501 15.8688 8.18751 16.3963 8.49376L20.9262 11.1388C21.6089 11.538 22.1337 12.1597 22.4127 12.8998C22.6917 13.6398 22.7079 14.4532 22.4587 15.2038L20.23 21.8913C20.001 22.5772 19.5622 23.1739 18.9757 23.5969C18.3891 24.02 17.6844 24.248 16.9613 24.2488H8.10375C7.57594 24.2484 7.05525 24.127 6.58174 23.8938C6.10823 23.6606 5.69454 23.3219 5.3725 22.9038L0 15.9125L1.175 14.1475C1.43807 13.7531 1.81427 13.4475 2.2542 13.2708C2.69413 13.0941 3.17721 13.0546 3.64 13.1575L6.32125 13.7538V4.33251Z" fill="#fff"/>
</svg>
