<svg viewBox = "0 0 512 512" width="20" height="20" xmlns="http://www.w3.org/2000/svg"><g transform="matrix(1 0 0 1 256 256)"  ><g style=""   ><g transform="matrix(1 0 0 1 0.11 -0.35)" id="Layer_1"  ><path style="stroke: none; stroke-width: 1; stroke-dasharray: none; stroke-linecap: butt; stroke-dashoffset: 0; stroke-linejoin: miter; stroke-miterlimit: 4; fill: rgb(255,103,0); fill-rule: nonzero; opacity: 1;"  transform=" translate(-256.11, -255.65)" d="M 444.852 66.908 L 345.513 66.908 L 345.513 47.04 C 345.513 25.096999999999998 327.721 7.304000000000002 305.777 7.304000000000002 L 206.438 7.304000000000002 C 184.494 7.304000000000002 166.702 25.097 166.702 47.04 L 166.702 66.908 L 67.363 66.908 L 67.363 86.776 L 87.833 86.776 L 107.72 464.265 C 107.72 486.209 125.512 504.001 147.456 504.001 L 366.00199999999995 504.001 C 387.94599999999997 504.001 405.73799999999994 486.20899999999995 405.73799999999994 464.265 L 425.27599999999995 86.77600000000001 L 444.85299999999995 86.77600000000001 L 444.85299999999995 66.908 z M 186.57 47.04 C 186.57 36.078 195.49599999999998 27.172 206.438 27.172 L 305.777 27.172 C 316.739 27.172 325.645 36.078 325.645 47.04 L 325.645 66.908 L 186.57 66.908 L 186.57 47.04 z M 385.908 463.236 L 385.869 463.741 L 385.869 464.265 C 385.869 475.20799999999997 376.963 484.133 366.00100000000003 484.133 L 147.455 484.133 C 136.513 484.133 127.58700000000002 475.20799999999997 127.58700000000002 464.265 L 127.58700000000002 463.741 L 127.56800000000001 463.21799999999996 L 107.72 86.776 L 405.389 86.776 L 385.908 463.236 z" stroke-linecap="round" /></g><g transform="matrix(1 0 0 1 0.11 29.45)" id="Layer_1"  ><rect style="stroke: none; stroke-width: 1; stroke-dasharray: none; stroke-linecap: butt; stroke-dashoffset: 0; stroke-linejoin: miter; stroke-miterlimit: 4; fill: rgb(255,103,0); fill-rule: nonzero; opacity: 1;"  x="-9.934" y="-158.9425" rx="0" ry="0" width="19.868" height="317.885" /></g><g transform="matrix(1 0 0 1 -69.2 29.75)" id="Layer_1"  ><polygon style="stroke: none; stroke-width: 1; stroke-dasharray: none; stroke-linecap: butt; stroke-dashoffset: 0; stroke-linejoin: miter; stroke-miterlimit: 4; fill: rgb(255,103,0); fill-rule: nonzero; opacity: 1;"  points="20.08,158 -0.25,-159.26 -20.08,-158 0.25,159.26 " /></g><g transform="matrix(1 0 0 1 69.71 29.45)" id="Layer_1"  ><polygon style="stroke: none; stroke-width: 1; stroke-dasharray: none; stroke-linecap: butt; stroke-dashoffset: 0; stroke-linejoin: miter; stroke-miterlimit: 4; fill: rgb(255,103,0); fill-rule: nonzero; opacity: 1;"  points="19.94,-158.32 0.11,-159.56 -19.94,158.32 -0.11,159.56 " /></g></g></g></svg>