<?xml version="1.0" ?><!DOCTYPE svg  PUBLIC '-//W3C//DTD SVG 1.1 Tiny//EN'  'http://www.w3.org/Graphics/SVG/1.1/DTD/svg11-tiny.dtd'><svg baseProfile="tiny" height="128px" id="Layer_1" version="1.1" viewBox="0 0 128 128" width="128px" xml:space="preserve" xmlns="http://www.w3.org/2000/svg" xmlns:xlink="http://www.w3.org/1999/xlink"><g><path d="M110.2,39.3c-1.7-1.7-4.1-2.8-6.8-2.8H92.2v0v-8c0,0,0-0.1,0-0.1c0-0.8-0.2-1.5-0.4-2.3   c-0.3-0.8-0.7-1.5-1.2-2.1l0,0c-1.2-1.5-3-2.4-4.8-2.5c-1.8-0.2-3.7,0.3-5.2,1.6l0,0l-4.8,4l-2.5,2.1c-0.3-0.4-0.6-0.7-0.9-1.1   c-2.1-2.1-5.1-3.5-8.4-3.5c-3.3,0-6.2,1.3-8.4,3.5c-0.3,0.3-0.6,0.7-0.9,1.1L52.1,27l-4.8-4l0,0c-1.5-1.2-3.4-1.8-5.2-1.6   c-1.8,0.2-3.5,1-4.8,2.5l0,0c-0.5,0.6-0.9,1.4-1.2,2.1c-0.3,0.7-0.4,1.5-0.4,2.3c0,0,0,0.1,0,0.1v8v0H24.6c-2.6,0-5,1.1-6.8,2.8   C16.1,41,15,43.4,15,46v51c0,2.6,1.1,5,2.8,6.8c1.7,1.7,4.1,2.8,6.8,2.8h32.6h13.6h32.6c2.6,0,5-1.1,6.8-2.8   c1.7-1.7,2.8-4.1,2.8-6.8V46C113,43.4,111.9,41,110.2,39.3z M74.3,30.5l2.7-2.2l4.8-3.9c0,0,0,0,0.1-0.1c1.1-0.9,2.6-1.3,3.9-1.2   c1.4,0.1,2.7,0.8,3.6,1.9c0,0,0,0,0.1,0.1c0.4,0.5,0.7,1,0.9,1.6c0.2,0.6,0.3,1.2,0.3,1.8c0,0,0,0.1,0,0.1v7.9v0H75.9v0   c0-0.5,0-1.1-0.1-1.6c0-0.1,0-0.3-0.1-0.4c-0.1-0.5-0.2-0.9-0.3-1.4c0,0,0-0.1,0-0.1c0,0,0,0,0,0c-0.1-0.4-0.3-0.8-0.4-1.2   c0-0.1-0.1-0.1-0.1-0.2C74.7,31.3,74.5,30.9,74.3,30.5C74.3,30.6,74.3,30.6,74.3,30.5z M64,26.3c2.8,0,5.4,1.1,7.2,3   c0.5,0.5,0.9,1.1,1.3,1.7c0.2,0.3,0.4,0.7,0.6,1c0,0.1,0.1,0.2,0.1,0.3c0.2,0.4,0.3,0.8,0.5,1.2c0,0.1,0,0.1,0,0.2   c0.1,0.4,0.2,0.7,0.3,1.1c0,0.1,0,0.2,0.1,0.3c0.1,0.4,0.1,0.9,0.1,1.3c0,0,0,0,0,0H53.8c0,0,0,0,0,0c0-0.5,0-0.9,0.1-1.3   c0-0.1,0-0.2,0.1-0.4c0.1-0.4,0.1-0.7,0.2-1.1c0-0.1,0-0.1,0-0.2c0.1-0.4,0.3-0.8,0.5-1.2c0-0.1,0.1-0.2,0.1-0.3   c0.2-0.3,0.4-0.7,0.6-1c0.4-0.6,0.8-1.2,1.3-1.7C58.6,27.4,61.2,26.3,64,26.3z M37.4,36.4v-7.9c0,0,0-0.1,0-0.1   c0-0.6,0.1-1.2,0.3-1.8c0.2-0.6,0.5-1.1,0.9-1.6l0,0c0.9-1.1,2.3-1.8,3.6-1.9c1.4-0.1,2.8,0.3,3.9,1.2l0,0l4.8,4l2.7,2.2   c0,0,0,0.1-0.1,0.1c-0.2,0.3-0.3,0.6-0.5,0.9c0,0.1-0.1,0.1-0.1,0.2c-0.2,0.4-0.3,0.8-0.4,1.2c0,0,0,0,0,0h0l0,0c0,0,0,0.1,0,0.1   c-0.1,0.5-0.2,0.9-0.3,1.4c0,0.1,0,0.3-0.1,0.4c-0.1,0.5-0.1,1-0.1,1.6v0L37.4,36.4L37.4,36.4z M19,102.6c-1.4-1.4-2.3-3.4-2.3-5.6   V46c0-2.2,0.9-4.1,2.3-5.6c1.4-1.4,3.4-2.3,5.6-2.3h12H53h3.3v43.3H27.5c-0.5,0-0.8,0.4-0.8,0.8c0,0.5,0.4,0.8,0.8,0.8h28.8v7.7   H27.5c-0.5,0-0.8,0.4-0.8,0.8c0,0.5,0.4,0.8,0.8,0.8h28.8v12.4H24.6C22.4,104.9,20.5,104,19,102.6z M58,104.9V38.1H70v66.7H58z    M111.3,97c0,2.2-0.9,4.1-2.3,5.6c-1.4,1.4-3.4,2.3-5.6,2.3H71.6V92.5h29c0.5,0,0.8-0.4,0.8-0.8c0-0.5-0.4-0.8-0.8-0.8h-29v-7.7h29   c0.5,0,0.8-0.4,0.8-0.8c0-0.5-0.4-0.8-0.8-0.8h-29v-7.9h29c0.5,0,0.8-0.4,0.8-0.8c0-0.5-0.4-0.8-0.8-0.8h-29v-7.9h29   c0.5,0,0.8-0.4,0.8-0.8c0-0.5-0.4-0.8-0.8-0.8h-29v-7.9h29c0.5,0,0.8-0.4,0.8-0.8s-0.4-0.8-0.8-0.8h-29V38.1H75h16.4h12   c2.2,0,4.1,0.9,5.6,2.3c1.4,1.4,2.3,3.4,2.3,5.6V97z" fill="#090000"/><path d="M37.3,76.3c0.6,0.6,1.4,0.9,2.2,0.9c0.8,0,1.5-0.3,2.1-0.8c0,0,0,0,0.1,0l9.2-9.2c0.8-0.8,1.4-1.7,1.8-2.7   c0.4-1,0.6-2.1,0.6-3.2c0-1.1-0.2-2.2-0.6-3.2c-0.4-1-1-1.9-1.8-2.7l0,0c-0.8-0.8-1.7-1.4-2.7-1.8c-1-0.4-2.1-0.6-3.2-0.6   c-1.1,0-2.2,0.2-3.2,0.6c-0.8,0.3-1.6,0.8-2.3,1.4c-0.7-0.6-1.5-1.1-2.3-1.4c-1-0.4-2.1-0.6-3.2-0.6c-1.1,0-2.2,0.2-3.2,0.6   c-1,0.4-1.9,1-2.7,1.8C27.3,56,26.7,57,26.3,58c-0.4,1-0.6,2.1-0.6,3.2c0,1.1,0.2,2.2,0.6,3.2c0.4,1,1,1.9,1.8,2.7L37.3,76.3z    M27.3,61.2c0-0.9,0.2-1.8,0.5-2.6c0.3-0.8,0.8-1.5,1.4-2.2c0.6-0.6,1.4-1.1,2.2-1.4c0.8-0.3,1.7-0.5,2.6-0.5   c0.9,0,1.8,0.2,2.6,0.5c0.8,0.3,1.5,0.8,2.2,1.4l0,0l0.2,0.2c0.3,0.3,0.9,0.3,1.2,0l0.2-0.2c0.6-0.6,1.4-1.1,2.2-1.4   c0.8-0.3,1.7-0.5,2.6-0.5c0.9,0,1.8,0.2,2.6,0.5c0.8,0.3,1.5,0.8,2.2,1.4c0.6,0.6,1.1,1.4,1.4,2.2c0.3,0.8,0.5,1.7,0.5,2.6   c0,0.9-0.2,1.8-0.5,2.6c-0.3,0.8-0.8,1.5-1.4,2.2l-9.2,9.2c0,0,0,0,0,0c-0.3,0.2-0.6,0.4-0.9,0.4c-0.4,0-0.7-0.1-1-0.4l-9.2-9.2   c-0.6-0.6-1.1-1.4-1.4-2.2C27.5,62.9,27.3,62,27.3,61.2z" fill="#090000"/></g></svg>