<?xml version="1.0" ?><svg enable-background="new 0 0 400 400" id="Layer_1" version="1.1" viewBox="0 0 400 400" xml:space="preserve" xmlns="http://www.w3.org/2000/svg" xmlns:xlink="http://www.w3.org/1999/xlink"><g><path d="M129.936,205.725c6.269,4.58,7.896,13.214,3.763,19.754l-13.758,25.737c-3.668,6.443-3.681,14.24-3.147,21.706   l1.095,15.33c0.137,1.918,0.101,3.834-0.098,5.726h164.418c-0.199-1.892-0.235-3.808-0.098-5.726l1.095-15.33   c0.534-7.466,0.521-15.263-3.147-21.706l-0.065-0.117l-13.693-25.62c-4.132-6.54-2.505-15.174,3.763-19.754   c5.293-3.868,12.327-3.692,17.386,0.019V48.017H112.551v157.727C117.61,202.033,124.643,201.857,129.936,205.725z M200,287.055   c-5.238,0-9.5-4.262-9.5-9.5s4.262-9.5,9.5-9.5s9.5,4.262,9.5,9.5S205.238,287.055,200,287.055z M271.54,257.924v-6.63   c0-1.381,1.119-2.5,2.5-2.5s2.5,1.119,2.5,2.5v9.13c0,1.381-1.119,2.5-2.5,2.5H125.96c-1.381,0-2.5-1.119-2.5-2.5v-9.13   c0-1.381,1.119-2.5,2.5-2.5s2.5,1.119,2.5,2.5v6.63H271.54z M123.46,61.494c0-1.381,1.119-2.5,2.5-2.5h148.08   c1.381,0,2.5,1.119,2.5,2.5v134.8c0,1.381-1.119,2.5-2.5,2.5s-2.5-1.119-2.5-2.5v-132.3H128.46v132.3c0,1.381-1.119,2.5-2.5,2.5   s-2.5-1.119-2.5-2.5V61.494z" fill="none"/><path d="M200,273.055c-2.481,0-4.5,2.019-4.5,4.5s2.019,4.5,4.5,4.5s4.5-2.019,4.5-4.5S202.481,273.055,200,273.055z" fill="none"/><path d="M106.839,315.312l-11.474,10.146c-0.951,0.841-2.134,1.254-3.311,1.254c-1.383,0-2.759-0.57-3.748-1.688   c-1.829-2.069-1.635-5.229,0.433-7.058l11.474-10.146c5.329-4.712,8.208-11.761,7.701-18.856l-1.095-15.33   c-0.644-9.017-0.556-18.564,4.397-27.306l13.984-26.122c1.38-2.107,0.868-4.922-1.166-6.408c-2.001-1.464-4.781-1.131-6.383,0.744   l-37.119,51.562c-1.613,2.241-4.737,2.75-6.979,1.137c-2.241-1.614-2.75-4.738-1.137-6.979l30.133-41.845v-18.091l-38.423,45.601   c-3.209,3.809-5.206,8.437-5.775,13.385l-4.816,41.743c-3.069,15.108,4.368,30.573,18.087,37.608   c13.637,6.995,30.423,4.084,40.915-7.065l13.535-18.257c2.028-2.736,3.311-5.991,3.747-9.362h-14.72   C113.2,308.262,110.409,312.155,106.839,315.312z" fill="none"/><path d="M346.396,300.63l-4.749-41.318c-0.569-4.948-2.566-9.576-5.775-13.385l-38.423-45.601v18.079l30.132,41.857   c1.613,2.241,1.104,5.366-1.137,6.979c-2.241,1.613-5.366,1.104-6.979-1.137l-37.119-51.562c-1.602-1.875-4.381-2.207-6.383-0.744   c-2.034,1.486-2.545,4.301-1.166,6.408l0.227,0.382l13.757,25.739c4.953,8.742,5.042,18.29,4.397,27.306l-1.095,15.33   c-0.507,7.095,2.372,14.145,7.701,18.856l11.474,10.146c2.068,1.83,2.262,4.989,0.433,7.058c-0.988,1.117-2.365,1.688-3.748,1.688   c-1.177,0-2.359-0.413-3.311-1.254l-11.474-10.146c-3.57-3.157-6.361-7.05-8.262-11.334h-14.72   c0.437,3.371,1.719,6.627,3.747,9.362l13.535,18.257c10.491,11.149,27.276,14.062,40.915,7.065   c13.719-7.035,21.157-22.5,18.087-37.608L346.396,300.63z" fill="none"/><path d="M125.96,198.794c1.381,0,2.5-1.119,2.5-2.5v-132.3h143.08v132.3c0,1.381,1.119,2.5,2.5,2.5   s2.5-1.119,2.5-2.5v-134.8c0-1.381-1.119-2.5-2.5-2.5H125.96c-1.381,0-2.5,1.119-2.5,2.5v134.8   C123.46,197.675,124.579,198.794,125.96,198.794z" fill="#333333"/><path d="M128.46,251.294c0-1.381-1.119-2.5-2.5-2.5s-2.5,1.119-2.5,2.5v9.13c0,1.381,1.119,2.5,2.5,2.5h148.08   c1.381,0,2.5-1.119,2.5-2.5v-9.13c0-1.381-1.119-2.5-2.5-2.5s-2.5,1.119-2.5,2.5v6.63H128.46V251.294z" fill="#333333"/><path d="M357.006,311.292c0.308-3.956,0.096-7.992-0.7-12.012l-4.725-41.11c-0.794-6.908-3.582-13.37-8.063-18.687   l-46.07-54.677V43.017c0-2.761-2.239-5-5-5H107.551c-2.761,0-5,2.239-5,5v141.789L56.48,239.483   c-4.48,5.317-7.268,11.779-8.062,18.687l-4.725,41.11c-0.796,4.02-1.007,8.057-0.699,12.013   c-1.771,12.038,1.277,24.275,8.512,33.874c7.276,9.654,18.02,15.56,30.253,16.629c1.429,0.125,2.85,0.187,4.258,0.187   c5.727,0,11.236-1.026,16.131-3.023c1.278-0.521,1.892-1.981,1.371-3.259c-0.521-1.279-1.982-1.893-3.259-1.371   c-5.367,2.189-11.616,3.052-18.065,2.485c-10.803-0.944-20.284-6.149-26.696-14.657c-2.32-3.079-4.144-6.469-5.469-10.043   c4.138,6.41,9.931,11.804,17.031,15.445c6.407,3.286,13.351,4.876,20.246,4.876c12.142,0,24.13-4.935,32.748-14.236l14.053-18.906   c3.297-4.447,5.304-9.808,5.779-15.317h120.229c0.475,5.509,2.481,10.87,5.779,15.317l13.703,18.485l0.349,0.421   c8.619,9.302,20.605,14.237,32.749,14.236c6.894,0,13.84-1.591,20.245-4.876c7.101-3.641,12.893-9.035,17.032-15.446   c-1.325,3.574-3.149,6.965-5.469,10.043c-6.412,8.508-15.893,13.713-26.697,14.657c-6.451,0.564-12.698-0.295-18.065-2.485   c-1.278-0.521-2.738,0.092-3.259,1.371s0.092,2.738,1.371,3.259c4.896,1.997,10.404,3.023,16.131,3.023   c1.408,0,2.83-0.062,4.258-0.187c12.233-1.069,22.978-6.975,30.254-16.629C355.73,335.568,358.777,323.33,357.006,311.292z    M287.449,48.017v157.727c-5.059-3.711-12.092-3.887-17.386-0.019c-6.269,4.581-7.896,13.214-3.763,19.754l13.693,25.62   l0.065,0.117c3.668,6.443,3.681,14.24,3.147,21.706l-1.095,15.33c-0.137,1.918-0.101,3.834,0.098,5.726H117.791   c0.199-1.892,0.235-3.808,0.098-5.726l-1.095-15.33c-0.534-7.466-0.521-15.263,3.147-21.706l13.758-25.737   c4.132-6.54,2.505-15.174-3.763-19.754c-5.293-3.869-12.326-3.692-17.385,0.018V48.017H287.449z M126.074,313.34l-13.535,18.257   c-10.492,11.149-27.278,14.06-40.915,7.065c-13.719-7.035-21.157-22.5-18.087-37.608l4.816-41.743   c0.569-4.948,2.565-9.577,5.775-13.385l38.423-45.601v18.091l-30.133,41.845c-1.613,2.241-1.104,5.366,1.137,6.979   c2.243,1.613,5.366,1.104,6.979-1.137l37.119-51.562c1.602-1.875,4.382-2.208,6.383-0.744c2.034,1.486,2.545,4.3,1.166,6.408   l-13.984,26.122c-4.953,8.742-5.042,18.29-4.397,27.306l1.095,15.33c0.507,7.095-2.372,14.144-7.701,18.856L88.74,317.967   c-2.068,1.83-2.262,4.989-0.433,7.058c0.988,1.117,2.364,1.688,3.748,1.688c1.177,0,2.359-0.414,3.311-1.254l11.474-10.146   c3.57-3.157,6.361-7.05,8.262-11.334h14.72C129.385,307.349,128.102,310.604,126.074,313.34z M328.376,338.662   c-13.639,6.997-30.424,4.084-40.915-7.065l-13.535-18.257c-2.028-2.736-3.311-5.991-3.747-9.362h14.72   c1.901,4.284,4.692,8.177,8.262,11.334l11.474,10.146c0.952,0.841,2.133,1.254,3.311,1.254c1.383,0,2.759-0.57,3.748-1.688   c1.829-2.069,1.635-5.229-0.433-7.058l-11.474-10.146c-5.329-4.712-8.208-11.761-7.701-18.856l1.095-15.33   c0.644-9.017,0.556-18.564-4.397-27.306l-13.757-25.739l-0.227-0.382c-1.38-2.107-0.868-4.922,1.166-6.408   c2.001-1.462,4.781-1.13,6.383,0.744l37.119,51.562c1.613,2.241,4.739,2.75,6.979,1.137c2.241-1.614,2.75-4.738,1.137-6.979   l-30.132-41.857v-18.079l38.423,45.601c3.209,3.809,5.207,8.438,5.775,13.385l4.749,41.318l0.067,0.425   C349.533,316.162,342.095,331.628,328.376,338.662z" fill="#333333"/><path d="M200,268.055c-5.238,0-9.5,4.262-9.5,9.5s4.262,9.5,9.5,9.5s9.5-4.262,9.5-9.5S205.238,268.055,200,268.055   z M200,282.055c-2.481,0-4.5-2.019-4.5-4.5s2.019-4.5,4.5-4.5s4.5,2.019,4.5,4.5S202.481,282.055,200,282.055z" fill="#333333"/></g></svg>