<svg width="24" height="24" viewBox="0 0 24 24" fill="none" xmlns="http://www.w3.org/2000/svg">
<g clip-path="url(#clip0_51_21)">
<mask id="mask0_51_21" style="mask-type:luminance" maskUnits="userSpaceOnUse" x="0" y="0" width="24" height="24">
<path d="M0 0H24V24H0V0Z" fill="white"/>
<path d="M12.9229 17.7696C12.9229 18.0756 12.8014 18.3691 12.585 18.5855C12.3686 18.8019 12.0751 18.9234 11.7691 18.9234C11.4631 18.9234 11.1696 18.8019 10.9532 18.5855C10.7368 18.3691 10.6152 18.0756 10.6152 17.7696C10.6152 17.4635 10.7368 17.1701 10.9532 16.9537C11.1696 16.7373 11.4631 16.6157 11.7691 16.6157C12.0751 16.6157 12.3686 16.7373 12.585 16.9537C12.8014 17.1701 12.9229 17.4635 12.9229 17.7696Z" fill="black"/>
<path fill-rule="evenodd" clip-rule="evenodd" d="M11.7322 6.52177C10.9873 6.52177 10.3254 6.74331 9.83712 7.08854C9.36635 7.42085 9.07558 7.851 8.98605 8.29592C8.96961 8.38652 8.93527 8.47293 8.88503 8.55009C8.83479 8.62725 8.76967 8.69361 8.69347 8.7453C8.61727 8.79698 8.53152 8.83295 8.44125 8.85109C8.35098 8.86923 8.258 8.86918 8.16775 8.85095C8.0775 8.83271 7.99179 8.79666 7.91565 8.74489C7.8395 8.69313 7.77445 8.6267 7.72429 8.54948C7.67413 8.47227 7.63988 8.38583 7.62354 8.29521C7.6072 8.2046 7.6091 8.11164 7.62912 8.02177C7.80082 7.17069 8.33251 6.45623 9.03774 5.95777C9.77251 5.439 10.7177 5.13623 11.7322 5.13623C13.8784 5.13623 15.8934 6.55315 15.8934 8.60423C15.8934 9.79685 15.1845 10.7975 14.2005 11.4002C14.0438 11.4962 13.8554 11.526 13.6768 11.4831C13.4981 11.4401 13.3439 11.328 13.2479 11.1713C13.1519 11.0146 13.1221 10.8262 13.1651 10.6476C13.208 10.4689 13.3201 10.3147 13.4768 10.2187C14.1497 9.807 14.5088 9.20977 14.5088 8.60423C14.5088 7.58977 13.4177 6.52177 11.7322 6.52177ZM11.7322 11.3818C11.9158 11.3818 12.0919 11.4547 12.2217 11.5845C12.3516 11.7144 12.4245 11.8905 12.4245 12.0741V13.4605C12.4245 13.5515 12.4066 13.6415 12.3718 13.7255C12.337 13.8095 12.286 13.8858 12.2217 13.9501C12.1574 14.0144 12.0811 14.0654 11.9971 14.1001C11.9131 14.1349 11.8231 14.1528 11.7322 14.1528C11.6413 14.1528 11.5513 14.1349 11.4673 14.1001C11.3833 14.0654 11.307 14.0144 11.2427 13.9501C11.1784 13.8858 11.1274 13.8095 11.0926 13.7255C11.0578 13.6415 11.0399 13.5515 11.0399 13.4605V12.0741C11.0399 11.8905 11.1128 11.7144 11.2427 11.5845C11.3725 11.4547 11.5486 11.3818 11.7322 11.3818Z" fill="black"/>
<path fill-rule="evenodd" clip-rule="evenodd" d="M14.4351 10.4549C14.4818 10.5329 14.5128 10.6193 14.5261 10.7093C14.5394 10.7992 14.5349 10.8909 14.5128 10.9791C14.4907 11.0673 14.4514 11.1503 14.3972 11.2234C14.343 11.2964 14.2749 11.358 14.1969 11.4047L12.0877 12.6675C12.0096 12.7161 11.9227 12.7487 11.8319 12.7634C11.7411 12.778 11.6483 12.7744 11.5589 12.7528C11.4695 12.7312 11.3853 12.692 11.3113 12.6375C11.2372 12.583 11.1747 12.5143 11.1275 12.4353C11.0803 12.3564 11.0493 12.2689 11.0363 12.1779C11.0232 12.0868 11.0285 11.9941 11.0517 11.9051C11.0749 11.8161 11.1157 11.7327 11.1715 11.6596C11.2273 11.5865 11.2972 11.5253 11.3769 11.4795L13.4862 10.2167C13.6436 10.1226 13.832 10.0948 14.0099 10.1395C14.1878 10.1841 14.3407 10.2976 14.4351 10.4549Z" fill="black"/>
</mask>
<g mask="url(#mask0_51_21)">
<path d="M12 24C18.6274 24 24 18.6274 24 12C24 5.37258 18.6274 0 12 0C5.37258 0 0 5.37258 0 12C0 18.6274 5.37258 24 12 24Z" fill="#9095A0"/>
</g>
</g>
<defs>
<clipPath id="clip0_51_21">
<rect width="24" height="24" fill="white"/>
</clipPath>
</defs>
</svg>
