<svg xmlns:xlink="http://www.w3.org/1999/xlink" xmlns="http://www.w3.org/2000/svg" xml:space="preserve" viewBox="0 0 52 52" version="1.1" id="Layer_1"><g><g><g><g><path d="M50,46.0002441H2V23.9997559h48V46.0002441z M4,44.0002441h44V25.9997559H4V44.0002441z"></path></g></g><g><g><path d="M48,50.0002441h-8v-6h8V50.0002441z M42,48.0002441h4v-2h-4V48.0002441z"></path></g></g><g><g><path d="M12,50.0002441H4v-6h8V50.0002441z M6,48.0002441h4v-2H6V48.0002441z"></path></g></g><g><g><rect y="34.0002441" x="8" width="5" height="2"></rect></g></g><g><g><rect y="34.0002441" x="17" width="5" height="2"></rect></g></g><g><g><rect y="34.0002441" x="26" width="5" height="2"></rect></g></g><g><g><path d="M40.5,39.5002441c-2.4814453,0-4.5-2.0185547-4.5-4.5s2.0185547-4.5,4.5-4.5s4.5,2.0185547,4.5,4.5      S42.9814453,39.5002441,40.5,39.5002441z M40.5,32.5002441c-1.3789063,0-2.5,1.1210938-2.5,2.5s1.1210938,2.5,2.5,2.5      s2.5-1.1210938,2.5-2.5S41.8789063,32.5002441,40.5,32.5002441z"></path></g></g></g><g><g><rect y="12.9997559" x="41" width="2" height="12"></rect></g></g><g><g><g><path d="M46,10.9997559h-2c0-0.3979492-0.7978516-1-2-1c-1.2207031,0-2,0.5922852-2,1h-2c0-1.6821289,1.7568359-3,4-3      S46,9.317627,46,10.9997559z"></path></g></g><g><g><path d="M49,6.9997559h-2c0-1.6259766-2.2900391-3-5-3s-5,1.3740234-5,3h-2c0-2.8037109,3.0751953-5,7-5      S49,4.1960449,49,6.9997559z"></path></g></g></g></g></svg>