<svg width="70" height="70" viewBox="0 0 70 70" fill="none" xmlns="http://www.w3.org/2000/svg">
<path d="M46.3358 7.62686C41.7388 8.56716 37.6119 11.7537 36.0448 15.5672C35.0522 17.9179 35 20.1119 35.8358 22.9328L36.4627 24.9701L34.0597 27.2687C32.7015 28.5224 31.3433 29.5672 31.0821 29.5672C30.0373 29.5672 22.3582 21.4179 21.6791 19.6418C20.5299 16.5075 20.3731 16.2985 15.6716 13.1642L11.1269 10.0821L9.5597 11.597C8.72388 12.3806 8.04478 13.3731 8.04478 13.791C8.04478 14.4701 11.4403 20.4254 12.903 22.306C13.2164 22.7761 14.5746 23.6119 15.8806 24.1866C17.1866 24.7612 20.3209 27.1642 22.8284 29.5672L27.3731 33.903L18.806 42.6269C10.1866 51.403 7 55.2164 7 56.5746C7 58.194 8.72388 60.9104 10.3955 61.9552C14 64.1493 15.1493 63.4701 26.1716 52.8657L33.6418 45.6567L41.5821 53.3358C50.0448 61.4851 51.9776 63 53.9627 63C57.6194 63 61.1194 57.9328 59.7612 54.5896C59.3955 53.7015 55.5821 49.3657 51.2985 44.9254C47.0672 40.4851 43.5672 36.5149 43.5672 36.1493C43.5672 34.6343 44.9776 34.2164 48.7388 34.5821C53.4403 35 54.6418 34.6866 57.4627 32.0746C61.7985 28.0522 63.7313 22.2015 62.3731 17.291C62.0075 15.9851 61.5373 14.9403 61.3806 14.9403C61.1716 14.9403 59.3955 16.6119 57.4104 18.6493C52.8134 23.2463 52.3433 23.5075 50.0448 22.7761C48.0597 22.097 47.2239 20.9478 47.2239 18.7537C47.2239 17.6045 48.1119 16.3507 51.403 13.1119C55.4776 9.08955 55.5298 8.93283 54.3806 8.35821C52.709 7.47015 48.8433 7.10448 46.3358 7.62686ZM52.4478 9.5597C52.4478 9.76866 50.6716 11.7537 48.5298 13.8955L44.5597 17.8657L45.3955 20.1642C46.4925 23.194 46.8582 23.6119 49.9403 24.6567L52.5522 25.4925L56.7313 21.4179L60.9104 17.291L60.7015 21.209C60.3358 27.3731 57.6194 31.4478 53.0224 32.7015C49.1045 33.7463 46.0224 32.4925 41.791 28.1567C37.9776 24.2388 37.1418 22.4104 37.403 18.6493C37.8209 12.7985 42.3657 9.45522 50.2537 9.24627C51.4552 9.24627 52.4478 9.35075 52.4478 9.5597ZM15.4627 15.0448C17.2388 16.1418 18.3358 17.291 19.0149 18.806C19.5896 19.9552 22.0448 23.1418 24.5 25.806C28.7313 30.403 29.5672 31.6567 28.4179 31.6567C28.1567 31.6567 25.6493 29.5149 22.9328 26.9552C19.7463 23.9254 17.291 22.097 16.3507 21.8881C14.6791 21.5746 13.0597 19.7463 11.2313 16.0896C9.35075 12.3806 10.6045 12.0672 15.4627 15.0448ZM40.694 29.5672L43.8284 32.7537L29.9851 46.5448C21.1045 55.3731 15.6194 60.4403 14.6791 60.6493C12.3806 61.2761 10.709 60.5448 9.76866 58.5075C8.93284 56.7836 8.93284 56.5746 9.87313 54.7985C10.8657 53.0224 36.4627 26.4328 37.2463 26.4328C37.4552 26.4328 38.9701 27.8433 40.694 29.5672ZM50.4627 46.7537C57.4104 54.0672 58.8731 56 58.5075 57.4627C57.8806 59.9701 55.3731 61.3806 52.6567 60.7015C51.9254 60.4925 47.5373 56.7836 42.9925 52.4478L34.6343 44.5597L37.8731 41.2687L41.1119 37.9776L43.5672 40.0149C44.9254 41.1642 48.0597 44.194 50.4627 46.7537Z" fill="white"/>
</svg>
