<svg version="1.0" xmlns="http://www.w3.org/2000/svg"
 width="70t" height="70" viewBox="0 0 134.000000 134.000000"
 preserveAspectRatio="xMidYMid meet">

<g transform="translate(0.000000,134.000000) scale(0.100000,-0.100000)"
fill="#fff" stroke="none">
<path d="M883 1200 c-88 -18 -167 -79 -197 -152 -19 -45 -20 -87 -4 -141 l12
-39 -46 -44 c-26 -24 -52 -44 -57 -44 -20 0 -167 156 -180 190 -22 60 -25 64
-115 124 l-87 59 -30 -29 c-16 -15 -29 -34 -29 -42 0 -13 65 -127 93 -163 6
-9 32 -25 57 -36 25 -11 85 -57 133 -103 l87 -83 -164 -167 c-165 -168 -226
-241 -226 -267 0 -31 33 -83 65 -103 69 -42 91 -29 302 174 l143 138 152 -147
c162 -156 199 -185 237 -185 70 0 137 97 111 161 -7 17 -80 100 -162 185 -81
85 -148 161 -148 168 0 29 27 37 99 30 90 -8 113 -2 167 48 83 77 120 189 94
283 -7 25 -16 45 -19 45 -4 0 -38 -32 -76 -71 -88 -88 -97 -93 -141 -79 -38
13 -54 35 -54 77 0 22 17 46 80 108 78 77 79 80 57 91 -32 17 -106 24 -154 14z
m117 -37 c0 -4 -34 -42 -75 -83 l-76 -76 16 -44 c21 -58 28 -66 87 -86 l50
-16 80 78 80 79 -4 -75 c-7 -118 -59 -196 -147 -220 -75 -20 -134 4 -215 87
-73 75 -89 110 -84 182 8 112 95 176 246 180 23 0 42 -2 42 -6z m-708 -105
c34 -21 55 -43 68 -72 11 -22 58 -83 105 -134 81 -88 97 -112 75 -112 -5 0
-53 41 -105 90 -61 58 -108 93 -126 97 -32 6 -63 41 -98 111 -36 71 -12 77 81
20z m483 -278 l60 -61 -265 -264 c-170 -169 -275 -266 -293 -270 -44 -12 -76
2 -94 41 -16 33 -16 37 2 71 19 34 509 543 524 543 4 0 33 -27 66 -60z m187
-329 c133 -140 161 -177 154 -205 -12 -48 -60 -75 -112 -62 -14 4 -98 75 -185
158 l-160 151 62 63 62 63 47 -39 c26 -22 86 -80 132 -129z"/>
</g>
</svg>
