<svg width="65" height="65" viewBox="0 0 50 50" fill="none" xmlns="http://www.w3.org/2000/svg">
<g clip-path="url(#clip0_37_10)">
<path d="M37 45.8334H10.4167V22.9167" stroke="#fff" stroke-width="1.5" stroke-linecap="round"/>
<path d="M34.4333 4.16675H15.5667C13.0604 4.16675 12.736 4.16675 11.7298 4.78966C10.7214 5.4105 9.92618 6.53133 8.80743 8.773L5.1875 16.1667C4.5125 17.8751 3.92083 19.8876 5.05833 21.3313C5.5942 22.0126 6.32921 22.5098 7.16098 22.7537C7.99275 22.9976 8.87987 22.976 9.6988 22.692C10.5177 22.4079 11.2277 21.8755 11.7298 21.169C12.2319 20.4624 12.5011 19.6169 12.5 18.7501C12.5 19.8551 12.939 20.915 13.7204 21.6964C14.5018 22.4778 15.5616 22.9167 16.6667 22.9167C17.7717 22.9167 18.8315 22.4778 19.6129 21.6964C20.3943 20.915 20.8333 19.8551 20.8333 18.7501C20.8333 19.8551 21.2723 20.915 22.0537 21.6964C22.8351 22.4778 23.8949 22.9167 25 22.9167C26.1051 22.9167 27.1649 22.4778 27.9463 21.6964C28.7277 20.915 29.1667 19.8551 29.1667 18.7501C29.1667 19.8551 29.6057 20.915 30.3871 21.6964C31.1685 22.4778 32.2283 22.9167 33.3333 22.9167C34.4384 22.9167 35.4982 22.4778 36.2796 21.6964C37.061 20.915 37.5 19.8551 37.5 18.7501C37.4999 19.6162 37.7697 20.4608 38.2718 21.1664C38.774 21.8721 39.4835 22.4038 40.3019 22.6875C41.1202 22.9712 42.0065 22.9928 42.8377 22.7494C43.6689 22.506 44.4036 22.0096 44.9396 21.3292C46.0771 19.8855 45.4854 17.873 44.8104 16.1647L41.2071 8.773C40.0884 6.53133 39.2801 5.4105 38.2718 4.78966C37.2656 4.16675 36.9396 4.16675 34.4333 4.16675Z" stroke="#fff" stroke-width="1.5" stroke-linejoin="round"/>
<path d="M40.5 25.3438C36.6182 25.3438 33.4688 28.3413 33.4688 32.0332C33.4688 36.2812 38.1562 43.0132 39.8774 45.3384C39.9489 45.4365 40.0425 45.5164 40.1507 45.5715C40.2589 45.6265 40.3786 45.6552 40.5 45.6552C40.6214 45.6552 40.7411 45.6265 40.8493 45.5715C40.9575 45.5164 41.0511 45.4365 41.1226 45.3384C42.8438 43.0142 47.5312 36.2847 47.5312 32.0332C47.5312 28.3413 44.3818 25.3438 40.5 25.3438Z" stroke="#fff" stroke-linecap="round" stroke-linejoin="round"/>
<path d="M40.5 34.7188C41.7944 34.7188 42.8438 33.6694 42.8438 32.375C42.8438 31.0806 41.7944 30.0312 40.5 30.0312C39.2056 30.0312 38.1562 31.0806 38.1562 32.375C38.1562 33.6694 39.2056 34.7188 40.5 34.7188Z" stroke="#fff" stroke-linecap="round" stroke-linejoin="round"/>
</g>
<defs>
<clipPath id="clip0_37_10">
<rect width="65" height="65" fill="white"/>
</clipPath>
</defs>
</svg>
