<svg width="70" height="70" viewBox="0 0 70 70" fill="none" xmlns="http://www.w3.org/2000/svg">
<path d="M50.344 63.9864H13.3486V32.0938" stroke="white" stroke-width="1.95" stroke-linecap="round"/>
<path d="M46.7719 6H20.5157C17.0277 6 16.5763 6 15.176 6.86689C13.7726 7.7309 12.6659 9.29073 11.109 12.4104L6.0712 22.7001C5.13182 25.0776 4.3084 27.8784 5.89144 29.8875C6.63719 30.8357 7.66009 31.5276 8.81765 31.8671C9.9752 32.2065 11.2098 32.1764 12.3495 31.7812C13.4891 31.3858 14.4772 30.6449 15.176 29.6617C15.8747 28.6783 16.2494 27.5016 16.2478 26.2953C16.2478 27.8331 16.8588 29.3082 17.9462 30.3956C19.0337 31.4831 20.5086 32.0939 22.0466 32.0939C23.5844 32.0939 25.0593 31.4831 26.1467 30.3956C27.2342 29.3082 27.8451 27.8331 27.8451 26.2953C27.8451 27.8331 28.4561 29.3082 29.5435 30.3956C30.631 31.4831 32.1059 32.0939 33.6438 32.0939C35.1818 32.0939 36.6567 31.4831 37.7441 30.3956C38.8316 29.3082 39.4425 27.8331 39.4425 26.2953C39.4425 27.8331 40.0535 29.3082 41.1409 30.3956C42.2284 31.4831 43.7033 32.0939 45.2411 32.0939C46.779 32.0939 48.2539 31.4831 49.3414 30.3956C50.4288 29.3082 51.0398 27.8331 51.0398 26.2953C51.0397 27.5007 51.4151 28.6761 52.1139 29.658C52.8128 30.6401 53.8002 31.3801 54.9391 31.7749C56.0779 32.1697 57.3114 32.1998 58.4682 31.8611C59.6249 31.5223 60.6474 30.8315 61.3933 29.8846C62.9764 27.8754 62.1529 25.0747 61.2135 22.6973L56.1989 12.4104C54.642 9.29073 53.5171 7.7309 52.1139 6.86689C50.7136 6 50.2599 6 46.7719 6Z" stroke="white" stroke-width="1.95" stroke-linejoin="round"/>
<path d="M55.2149 35.4727C49.8126 35.4727 45.4297 39.6442 45.4297 44.7821C45.4297 50.694 51.953 60.0628 54.3484 63.2987C54.4479 63.4352 54.5782 63.5464 54.7287 63.6231C54.8793 63.6996 55.0459 63.7396 55.2149 63.7396C55.3838 63.7396 55.5504 63.6996 55.701 63.6231C55.8515 63.5464 55.9818 63.4352 56.0813 63.2987C58.4767 60.0642 65 50.6989 65 44.7821C65 39.6442 60.6171 35.4727 55.2149 35.4727Z" stroke="white" stroke-width="1.3" stroke-linecap="round" stroke-linejoin="round"/>
<path d="M55.2149 48.5197C57.0163 48.5197 58.4768 47.0593 58.4768 45.2579C58.4768 43.4565 57.0163 41.9961 55.2149 41.9961C53.4136 41.9961 51.9531 43.4565 51.9531 45.2579C51.9531 47.0593 53.4136 48.5197 55.2149 48.5197Z" stroke="white" stroke-width="1.3" stroke-linecap="round" stroke-linejoin="round"/>
</svg>
