<svg width="26" height="25" viewBox="0 0 30 29" fill="none" xmlns="http://www.w3.org/2000/svg">
<path d="M9.375 26.3672C10.4105 26.3672 11.25 25.5802 11.25 24.6094C11.25 23.6386 10.4105 22.8516 9.375 22.8516C8.33947 22.8516 7.5 23.6386 7.5 24.6094C7.5 25.5802 8.33947 26.3672 9.375 26.3672Z" fill="#F96302"/>
<path d="M22.5 26.3672C23.5355 26.3672 24.375 25.5802 24.375 24.6094C24.375 23.6386 23.5355 22.8516 22.5 22.8516C21.4645 22.8516 20.625 23.6386 20.625 24.6094C20.625 25.5802 21.4645 26.3672 22.5 26.3672Z" fill="#F96302"/>
<path d="M26.25 6.15228H5.45625L4.6875 2.46087C4.64367 2.25936 4.52585 2.07864 4.35455 1.95016C4.18326 1.82169 3.96932 1.7536 3.75 1.75775H0V3.51556H2.98125L6.5625 20.3906C6.60633 20.5921 6.72415 20.7728 6.89545 20.9013C7.06674 21.0297 7.28068 21.0978 7.5 21.0937H24.375V19.3359H8.26875L7.5 15.8202H24.375C24.5917 15.8252 24.8036 15.7596 24.9745 15.6346C25.1454 15.5096 25.2649 15.333 25.3125 15.1347L27.1875 7.22454C27.2189 7.09414 27.2182 6.95873 27.1854 6.82863C27.1525 6.69852 27.0885 6.57715 26.9981 6.47376C26.9077 6.37036 26.7933 6.28766 26.6637 6.23195C26.534 6.17624 26.3926 6.14899 26.25 6.15228ZM23.625 14.0624H7.14375L5.83125 7.91009H25.0781L23.625 14.0624Z" fill="#F96302"/>
</svg>
