<svg width="40" height="50" viewBox="0 0 54 86" fill="none" xmlns="http://www.w3.org/2000/svg">
<g clip-path="url(#clip0_42_2)">
<path d="M34.18 6.78018C33.9498 4.97217 33.0682 3.31016 31.7004 2.10553C30.3327 0.900901 28.5726 0.236328 26.75 0.236328C24.9274 0.236328 23.1673 0.900901 21.7996 2.10553C20.4318 3.31016 19.5502 4.97217 19.32 6.78018C14.1785 7.01951 9.32722 9.23185 5.77533 12.9569C2.22345 16.6821 0.244444 21.6331 0.250012 26.7802V78.2002C0.252658 80.2017 1.04895 82.1206 2.46428 83.5359C3.8796 84.9512 5.79844 85.7475 7.80001 85.7502H45.7C47.7016 85.7475 49.6204 84.9512 51.0357 83.5359C52.4511 82.1206 53.2474 80.2017 53.25 78.2002V26.7002C53.235 21.567 51.2469 16.636 47.6971 12.928C44.1473 9.22 39.3077 7.01885 34.18 6.78018ZM26.75 2.25018C28.0338 2.25212 29.2765 2.70309 30.2627 3.52495C31.2489 4.34682 31.9166 5.48779 32.15 6.75018H21.35C21.5834 5.48779 22.2511 4.34682 23.2373 3.52495C24.2236 2.70309 25.4662 2.25212 26.75 2.25018ZM2.25001 26.7702C2.25001 21.9963 4.14643 17.4179 7.52209 14.0423C10.8977 10.6666 15.4761 8.77018 20.25 8.77018H33.3C38.0739 8.77018 42.6523 10.6666 46.0279 14.0423C49.4036 17.4179 51.3 21.9963 51.3 26.7702V52.2502H46.3V47.7502H7.30001V52.2502H2.30001L2.25001 26.7702ZM51.25 56.5002H46.25V54.2502H51.25V56.5002ZM51.25 60.7502H46.25V58.5002H51.25V60.7502ZM51.25 65.0002H46.25V62.7502H51.25V65.0002ZM13 59.0002V56.2502H44.25V76.7502H9.25001V56.2502H11V59.0002H13ZM9.25001 54.2502V49.7502H44.25V54.2502H9.25001ZM2.25001 54.2502H7.25001V56.5002H2.25001V54.2502ZM2.25001 58.5002H7.25001V60.7502H2.25001V58.5002ZM2.25001 62.7502H7.25001V65.0002H2.25001V62.7502ZM2.25001 67.0002H7.25001V69.2502H2.25001V67.0002ZM51.25 78.2002C51.2474 79.6713 50.6618 81.0814 49.6215 82.1217C48.5813 83.162 47.1711 83.7475 45.7 83.7502H7.80001C6.32887 83.7475 4.91874 83.162 3.87849 82.1217C2.83823 81.0814 2.25266 79.6713 2.25001 78.2002V71.2002H7.25001V78.7002H46.25V71.2002H51.25V78.2002ZM51.25 69.2002H46.25V67.0002H51.25V69.2002Z" fill="black"/>
<path d="M26.7502 36.2698C26.4254 36.2712 26.1036 36.2084 25.8032 36.0848C25.5029 35.9612 25.2299 35.7794 25.0002 35.5498L19.0002 29.5498C18.5379 29.0867 18.2783 28.4591 18.2783 27.8048C18.2783 27.1505 18.5379 26.5229 19.0002 26.0598L25.0002 20.0598C25.4633 19.5975 26.0909 19.3379 26.7452 19.3379C27.3995 19.3379 28.0271 19.5975 28.4902 20.0598L34.4902 26.0598C34.9525 26.5229 35.2121 27.1505 35.2121 27.8048C35.2121 28.4591 34.9525 29.0867 34.4902 29.5498L28.4902 35.5498C28.2617 35.7782 27.9904 35.9593 27.6918 36.0829C27.3933 36.2064 27.0733 36.2699 26.7502 36.2698ZM26.7502 21.3598C26.626 21.361 26.5074 21.4114 26.4202 21.4998L20.4202 27.4998C20.3335 27.5877 20.2849 27.7063 20.2849 27.8298C20.2849 27.9533 20.3335 28.0718 20.4202 28.1598L26.4202 34.1598C26.5082 34.2465 26.6267 34.2951 26.7502 34.2951C26.8737 34.2951 26.9923 34.2465 27.0802 34.1598L33.0802 28.1598C33.1669 28.0718 33.2155 27.9533 33.2155 27.8298C33.2155 27.7063 33.1669 27.5877 33.0802 27.4998L27.0802 21.4998C26.993 21.4114 26.8744 21.361 26.7502 21.3598Z" fill="black"/>
<path d="M24.75 30.75C24.4848 30.75 24.2304 30.6446 24.0429 30.4571C23.8554 30.2696 23.75 30.0152 23.75 29.75V26.75C23.75 26.4848 23.8554 26.2304 24.0429 26.0429C24.2304 25.8554 24.4848 25.75 24.75 25.75C25.0152 25.75 25.2696 25.8554 25.4571 26.0429C25.6446 26.2304 25.75 26.4848 25.75 26.75V29.75C25.75 30.0152 25.6446 30.2696 25.4571 30.4571C25.2696 30.6446 25.0152 30.75 24.75 30.75Z" fill="black"/>
<path d="M28.75 30.75C28.4848 30.75 28.2304 30.6446 28.0429 30.4571C27.8554 30.2696 27.75 30.0152 27.75 29.75V26.75C27.75 26.4848 27.8554 26.2304 28.0429 26.0429C28.2304 25.8554 28.4848 25.75 28.75 25.75C29.0152 25.75 29.2696 25.8554 29.4571 26.0429C29.6446 26.2304 29.75 26.4848 29.75 26.75V29.75C29.75 30.0152 29.6446 30.2696 29.4571 30.4571C29.2696 30.6446 29.0152 30.75 28.75 30.75Z" fill="black"/>
<path d="M42.25 74.75H33.25V67.75H42.25V74.75ZM35.25 72.75H40.25V69.75H35.25V72.75Z" fill="black"/>
</g>
<defs>
<clipPath id="clip0_42_2">
<rect width="54" height="86" fill="white"/>
</clipPath>
</defs>
</svg>
