<svg width="60" height="60" viewBox="0 0 50 50" fill="none" xmlns="http://www.w3.org/2000/svg">
<path d="M14.0625 14.0625L21.875 21.875M14.0625 14.0625L17.5672 10.5578C17.6576 10.4675 17.7083 10.3449 17.7083 10.2171V10.2171C17.7083 10.0226 17.5914 9.84713 17.4118 9.77231L14.7083 8.64587C12.5521 7.74728 10.5325 6.55092 8.70833 5.0917L6.43649 3.27423C6.31577 3.17765 6.16577 3.12503 6.01118 3.12503V3.12503C5.83061 3.12503 5.65744 3.19676 5.52976 3.32445L3.32441 5.52979C3.19673 5.65747 3.125 5.83064 3.125 6.01121V6.01121C3.125 6.16581 3.17762 6.3158 3.27419 6.43652L5.09167 8.70837C6.55089 10.5325 7.74725 12.5521 8.64583 14.7084L9.77228 17.4118C9.8471 17.5914 10.0225 17.7084 10.2171 17.7084V17.7084C10.3449 17.7084 10.4674 17.6576 10.5578 17.5672L14.0625 14.0625ZM27.0833 34.375C30.29 38.0137 34.843 42.7639 37.8488 46.6513C37.9581 46.7926 38.1256 46.875 38.3042 46.875V46.875C38.4563 46.875 38.6021 46.8146 38.7096 46.7071L46.7193 38.6974C46.819 38.5977 46.875 38.4625 46.875 38.3215V38.3215C46.875 38.135 46.7819 37.9648 46.6231 37.8671C45.2945 37.0495 38.9509 33.064 33.3333 28.125M36.4583 23.9584C38.1882 23.9589 39.891 23.5285 41.4129 22.7062C42.9348 21.8839 44.228 20.6956 45.1757 19.2484C46.1234 17.8012 46.6958 16.1408 46.8411 14.4171C46.9681 12.9111 46.7657 11.3983 46.2512 9.98287C46.1153 9.60918 45.7513 9.37503 45.3537 9.37503H45.2059C44.9407 9.37503 44.6863 9.48039 44.4988 9.66793L38.8346 15.3321C38.647 15.5197 38.3927 15.625 38.1275 15.625H35.375C34.8227 15.625 34.375 15.1773 34.375 14.625V11.8726C34.375 11.6074 34.4804 11.353 34.6679 11.1655L40.3321 5.50126C40.5196 5.31372 40.625 5.05937 40.625 4.79415V4.6459C40.625 4.24851 40.3911 3.88464 40.0177 3.74861C38.3153 3.12841 36.4766 2.96172 34.6836 3.27063C32.6752 3.61665 30.8125 4.54419 29.326 5.93837C27.8396 7.33256 26.7948 9.13215 26.321 11.1143C25.8966 12.8896 25.947 14.7415 26.4617 16.4851C26.5716 16.8575 26.485 17.2651 26.2104 17.5396L22.9167 20.8334C14.3441 29.4059 4.90057 36.672 3.34676 37.8531C3.204 37.9616 3.125 38.1264 3.125 38.3057V38.3057C3.125 38.4568 3.18502 38.6017 3.29186 38.7086L11.2915 46.7082C11.3983 46.815 11.5432 46.875 11.6943 46.875V46.875C11.8736 46.875 12.0384 46.796 12.147 46.6533C13.328 45.0995 20.5941 35.6559 29.1667 27.0834L32.4613 23.7888C32.7354 23.5147 33.1421 23.4278 33.5141 23.5369C34.4692 23.8172 35.4607 23.9594 36.4583 23.9584Z" stroke="#fff"/>
</svg>
