<svg width="24" height="16" viewBox="0 0 24 16" fill="none" xmlns="http://www.w3.org/2000/svg">
<path d="M23.7818 4.11429C23.5636 2.4 23.3455 1.14286 22.6909 0.685714C22.0364 0.114286 16.3636 0 12 0C7.63636 0 1.96364 0.114286 1.30909 0.685714C0.654546 1.14286 0.436364 2.4 0.218182 4.11429C4.87674e-08 5.82857 0 6.85714 0 8C0 9.14286 4.87674e-08 10.1714 0.218182 11.8857C0.436364 13.6 0.654546 14.8571 1.30909 15.3143C1.96364 15.8857 7.63636 16 12 16C16.3636 16 22.0364 15.8857 22.6909 15.3143C23.3455 14.8571 23.5636 13.6 23.7818 11.8857C24 10.1714 24 9.14286 24 8C24 6.85714 24 5.82857 23.7818 4.11429ZM9.81818 12.1143V3.88571L16.3636 8L9.81818 12.1143Z" fill="#FF0000"/>
</svg>
